<svg width="106" height="90" viewBox="0 0 106 90" fill="none" xmlns="http://www.w3.org/2000/svg">
<g filter="url(#filter0_d_1_1208)">
<path d="M29.0057 18.4608C33.4598 16.3769 38.2224 14.8623 43.2015 14C43.813 15.1055 44.5274 16.5925 45.0199 17.7754C50.3129 16.9794 55.5572 16.9794 60.7527 17.7754C61.2452 16.5925 61.9758 15.1055 62.5928 14C67.5773 14.8623 72.3453 16.3824 76.7994 18.4719C85.7834 32.0479 88.2188 45.2866 87.0011 58.3375C81.0424 62.7873 75.2678 65.4903 69.5906 67.2592C68.1889 65.33 66.9387 63.2792 65.8617 61.1179C67.9128 60.3385 69.8774 59.3767 71.7337 58.2601C71.2412 57.8953 70.7596 57.5139 70.2941 57.1214C58.9722 62.4169 46.6706 62.4169 35.4839 57.1214C35.0131 57.5139 34.5314 57.8953 34.0443 58.2601C35.906 59.3822 37.876 60.344 39.9272 61.1234C38.8502 63.2792 37.6054 65.3355 36.1983 67.2647C30.5157 65.4958 24.7356 62.7928 18.7769 58.3375C17.3482 43.2082 21.2178 30.0911 29.0057 18.4608ZM64.3192 50.3113C67.718 50.3113 70.5052 47.1384 70.5052 43.2746C70.5052 39.4107 67.7775 36.2323 64.3192 36.2323C60.861 36.2323 58.0738 39.4052 58.1333 43.2746C58.1279 47.1384 60.861 50.3113 64.3192 50.3113ZM41.4588 50.3113C44.8576 50.3113 47.6448 47.1384 47.6448 43.2746C47.6448 39.4107 44.9171 36.2323 41.4588 36.2323C38.0005 36.2323 35.2133 39.4052 35.2728 43.2746C35.2728 47.1384 38.0005 50.3113 41.4588 50.3113Z" fill="white" fill-opacity="0.7" shape-rendering="crispEdges"/>
<path d="M39.2315 61.3895C37.3382 60.6371 35.516 59.7309 33.7862 58.6883L33.1503 58.305L33.7446 57.8599C34.2244 57.5005 34.6993 57.1245 35.1638 56.7373L35.4091 56.5328L35.6978 56.6695C46.7483 61.9005 58.8937 61.9016 70.0823 56.6685L70.372 56.533L70.6165 56.7392C71.074 57.125 71.5475 57.4999 72.0314 57.8583L72.632 58.3033L71.9915 58.6886C70.267 59.7259 68.4498 60.6316 66.5569 61.3841C67.5085 63.2333 68.5893 64.999 69.7851 66.6737C75.2456 64.9368 80.7973 62.3148 86.5236 58.0696C87.6801 45.2329 85.2622 32.221 76.4599 18.8651C72.1868 16.8737 67.624 15.4105 62.8584 14.5545C62.2897 15.6026 61.6541 16.9112 61.2143 17.9676L61.0639 18.3289L60.677 18.2696C55.5321 17.4814 50.3384 17.4812 45.0943 18.2698L44.7083 18.3279L44.5583 17.9676C44.1177 16.9093 43.4956 15.6013 42.9343 14.5549C38.174 15.4108 33.6165 16.8688 29.3437 18.8549C21.7047 30.3111 17.8999 43.2067 19.2542 58.0696C24.9809 62.3203 30.5381 64.9425 36.0043 66.6795C37.2032 65.0054 38.2802 63.2361 39.2315 61.3895ZM71.0052 43.2746C71.0052 47.352 68.0528 50.8113 64.3192 50.8113C60.5251 50.8113 57.6295 47.3515 57.6333 43.278C57.5724 39.187 60.5305 35.7323 64.3192 35.7323C68.1157 35.7323 71.0052 39.201 71.0052 43.2746ZM48.1448 43.2746C48.1448 47.352 45.1924 50.8113 41.4588 50.8113C37.6639 50.8113 34.7746 47.3508 34.7728 43.2783C34.7118 39.1871 37.67 35.7323 41.4588 35.7323C45.2553 35.7323 48.1448 39.201 48.1448 43.2746Z" stroke="white" stroke-opacity="0.5" shape-rendering="crispEdges"/>
</g>
<defs>
<filter id="filter0_d_1_1208" x="0.484497" y="0" width="104.809" height="89.2646" filterUnits="userSpaceOnUse" color-interpolation-filters="sRGB">
<feFlood flood-opacity="0" result="BackgroundImageFix"/>
<feColorMatrix in="SourceAlpha" type="matrix" values="0 0 0 0 0 0 0 0 0 0 0 0 0 0 0 0 0 0 127 0" result="hardAlpha"/>
<feOffset dy="4"/>
<feGaussianBlur stdDeviation="9"/>
<feComposite in2="hardAlpha" operator="out"/>
<feColorMatrix type="matrix" values="0 0 0 0 1 0 0 0 0 0.541176 0 0 0 0 0.929412 0 0 0 0.7 0"/>
<feBlend mode="normal" in2="BackgroundImageFix" result="effect1_dropShadow_1_1208"/>
<feBlend mode="normal" in="SourceGraphic" in2="effect1_dropShadow_1_1208" result="shape"/>
</filter>
</defs>
</svg>
