<svg width="102" height="87" viewBox="0 0 102 87" fill="none" xmlns="http://www.w3.org/2000/svg">
<g filter="url(#filter0_d_1_1200)">
<mask id="path-1-inside-1_1_1200" fill="white">
<path fill-rule="evenodd" clip-rule="evenodd" d="M76.3371 16.4764C79.1364 17.2954 81.3435 19.6937 82.0972 22.7354C83.4968 28.2924 83.443 39.8745 83.443 39.8745C83.443 39.8745 83.443 51.398 82.0972 56.955C81.3435 59.9968 79.1364 62.3951 76.3371 63.214C71.223 64.6764 50.7667 64.6764 50.7667 64.6764C50.7667 64.6764 30.3642 64.6764 25.1963 63.1555C22.397 62.3366 20.1899 59.9383 19.4362 56.8965C18.0904 51.398 18.0904 39.816 18.0904 39.816C18.0904 39.816 18.0904 28.2924 19.4362 22.7354C20.1899 19.6937 22.4508 17.2369 25.1963 16.4179C30.3104 14.9556 50.7667 14.9556 50.7667 14.9556C50.7667 14.9556 71.223 14.9556 76.3371 16.4764ZM61.264 39.4095L44.2529 50.0556V28.7634L61.264 39.4095Z"/>
</mask>
<path fill-rule="evenodd" clip-rule="evenodd" d="M76.3371 16.4764C79.1364 17.2954 81.3435 19.6937 82.0972 22.7354C83.4968 28.2924 83.443 39.8745 83.443 39.8745C83.443 39.8745 83.443 51.398 82.0972 56.955C81.3435 59.9968 79.1364 62.3951 76.3371 63.214C71.223 64.6764 50.7667 64.6764 50.7667 64.6764C50.7667 64.6764 30.3642 64.6764 25.1963 63.1555C22.397 62.3366 20.1899 59.9383 19.4362 56.8965C18.0904 51.398 18.0904 39.816 18.0904 39.816C18.0904 39.816 18.0904 28.2924 19.4362 22.7354C20.1899 19.6937 22.4508 17.2369 25.1963 16.4179C30.3104 14.9556 50.7667 14.9556 50.7667 14.9556C50.7667 14.9556 71.223 14.9556 76.3371 16.4764ZM61.264 39.4095L44.2529 50.0556V28.7634L61.264 39.4095Z" fill="white" fill-opacity="0.7" shape-rendering="crispEdges"/>
<path d="M82.0972 22.7354L81.1265 22.9759L81.1274 22.9797L82.0972 22.7354ZM76.3371 16.4764L76.052 17.435L76.0563 17.4362L76.3371 16.4764ZM83.443 39.8745L82.443 39.8698V39.8745H83.443ZM82.0972 56.955L83.0678 57.1955L83.0691 57.1904L82.0972 56.955ZM76.3371 63.214L76.612 64.1755L76.6179 64.1738L76.3371 63.214ZM50.7667 64.6764L50.7667 65.6764L50.7667 65.6764L50.7667 64.6764ZM25.1963 63.1555L25.4786 62.1962L25.4771 62.1957L25.1963 63.1555ZM19.4362 56.8965L18.4649 57.1343L18.4656 57.137L19.4362 56.8965ZM19.4362 22.7354L18.4655 22.4949L18.4643 22.5L19.4362 22.7354ZM25.1963 16.4179L24.9213 15.4564L24.9104 15.4597L25.1963 16.4179ZM44.2529 50.0556H43.2529V51.8611L44.7834 50.9033L44.2529 50.0556ZM61.264 39.4095L61.7945 40.2572L63.149 39.4095L61.7945 38.5618L61.264 39.4095ZM44.2529 28.7634L44.7834 27.9157L43.2529 26.9579V28.7634H44.2529ZM83.0678 22.4949C82.2363 19.1391 79.7886 16.4443 76.6179 15.5167L76.0563 17.4362C78.4841 18.1465 80.4507 20.2483 81.1265 22.9759L83.0678 22.4949ZM83.443 39.8745C84.443 39.8791 84.443 39.879 84.443 39.8789C84.443 39.8788 84.443 39.8786 84.443 39.8783C84.443 39.8779 84.443 39.8773 84.443 39.8765C84.443 39.875 84.443 39.8727 84.443 39.8697C84.443 39.8638 84.443 39.8551 84.4431 39.8438C84.4431 39.821 84.4432 39.7875 84.4432 39.7437C84.4433 39.6561 84.4432 39.5274 84.4425 39.3621C84.4413 39.0315 84.4379 38.5538 84.4294 37.9636C84.4125 36.7836 84.3752 35.1517 84.2939 33.3439C84.1326 29.7572 83.7943 25.3793 83.0669 22.4912L81.1274 22.9797C81.7997 25.6485 82.1343 29.8402 82.2959 33.4338C82.3761 35.2161 82.4129 36.827 82.4296 37.9923C82.438 38.5747 82.4413 39.0454 82.4426 39.3698C82.4432 39.532 82.4433 39.6577 82.4432 39.7424C82.4432 39.7848 82.4431 39.817 82.4431 39.8384C82.4431 39.8491 82.443 39.8571 82.443 39.8624C82.443 39.865 82.443 39.867 82.443 39.8682C82.443 39.8688 82.443 39.8693 82.443 39.8695C82.443 39.8697 82.443 39.8697 82.443 39.8698C82.443 39.8698 82.443 39.8698 83.443 39.8745ZM83.0691 57.1904C83.7671 54.3082 84.1056 49.9503 84.2736 46.3779C84.3583 44.5781 84.4006 42.954 84.4218 41.7799C84.4324 41.1926 84.4377 40.7174 84.4403 40.3885C84.4416 40.2241 84.4423 40.0962 84.4426 40.0091C84.4428 39.9655 84.4429 39.9322 84.4429 39.9096C84.4429 39.8983 84.443 39.8896 84.443 39.8838C84.443 39.8808 84.443 39.8786 84.443 39.877C84.443 39.8763 84.443 39.8757 84.443 39.8752C84.443 39.875 84.443 39.8748 84.443 39.8747C84.443 39.8746 84.443 39.8745 83.443 39.8745C82.443 39.8745 82.443 39.8745 82.443 39.8745C82.443 39.8746 82.443 39.8746 82.443 39.8748C82.443 39.875 82.443 39.8755 82.443 39.8761C82.443 39.8774 82.443 39.8793 82.443 39.8819C82.443 39.8872 82.443 39.8952 82.4429 39.9058C82.4429 39.9272 82.4428 39.9592 82.4426 40.0014C82.4423 40.0858 82.4417 40.2109 82.4404 40.3724C82.4378 40.6954 82.4326 41.1639 82.4221 41.7438C82.4012 42.9041 82.3594 44.5082 82.2758 46.2839C82.1075 49.8625 81.773 54.0449 81.1253 56.7197L83.0691 57.1904ZM76.6179 64.1738C79.7886 63.2462 82.2363 60.5514 83.0678 57.1955L81.1265 56.7145C80.4507 59.4422 78.4841 61.544 76.0563 62.2542L76.6179 64.1738ZM50.7667 64.6764C50.7667 65.6764 50.7668 65.6764 50.767 65.6764C50.7672 65.6764 50.7674 65.6764 50.7678 65.6764C50.7684 65.6764 50.7694 65.6764 50.7707 65.6764C50.7733 65.6764 50.7771 65.6764 50.7821 65.6764C50.7921 65.6764 50.807 65.6764 50.8267 65.6763C50.8659 65.6763 50.9241 65.6762 51 65.676C51.1519 65.6757 51.3751 65.675 51.6607 65.6735C52.2319 65.6707 53.0531 65.6649 54.0543 65.6535C56.0564 65.6306 58.7804 65.5848 61.6659 65.4931C64.5496 65.4015 67.6032 65.2638 70.262 65.0564C72.8911 64.8514 75.2238 64.5725 76.612 64.1755L76.0622 62.2525C74.8934 62.5868 72.7512 62.8562 70.1065 63.0625C67.4913 63.2664 64.4719 63.4029 61.6023 63.4941C58.7345 63.5852 56.0247 63.6308 54.0315 63.6536C53.035 63.665 52.2181 63.6707 51.6506 63.6735C51.3669 63.675 51.1455 63.6757 50.9953 63.676C50.9202 63.6762 50.8628 63.6763 50.8244 63.6763C50.8051 63.6764 50.7906 63.6764 50.781 63.6764C50.7761 63.6764 50.7725 63.6764 50.7701 63.6764C50.7689 63.6764 50.7681 63.6764 50.7675 63.6764C50.7672 63.6764 50.767 63.6764 50.7668 63.6764C50.7667 63.6764 50.7667 63.6764 50.7667 64.6764ZM24.914 64.1148C26.3177 64.5279 28.6587 64.8182 31.2911 65.0315C33.9531 65.2472 37.0057 65.3904 39.8864 65.4857C42.7688 65.5811 45.4881 65.6287 47.4861 65.6526C48.4854 65.6645 49.3048 65.6704 49.8747 65.6734C50.1597 65.6749 50.3823 65.6756 50.5338 65.676C50.6096 65.6762 50.6676 65.6763 50.7068 65.6763C50.7264 65.6764 50.7413 65.6764 50.7513 65.6764C50.7563 65.6764 50.7601 65.6764 50.7627 65.6764C50.764 65.6764 50.7649 65.6764 50.7656 65.6764C50.7659 65.6764 50.7662 65.6764 50.7664 65.6764C50.7666 65.6764 50.7667 65.6764 50.7667 64.6764C50.7667 63.6764 50.7666 63.6764 50.7665 63.6764C50.7664 63.6764 50.7662 63.6764 50.7659 63.6764C50.7653 63.6764 50.7644 63.6764 50.7633 63.6764C50.7609 63.6764 50.7573 63.6764 50.7525 63.6764C50.7428 63.6764 50.7284 63.6764 50.7092 63.6763C50.6708 63.6763 50.6137 63.6762 50.5388 63.676C50.3889 63.6757 50.1682 63.6749 49.8851 63.6734C49.3191 63.6705 48.5042 63.6646 47.51 63.6527C45.5211 63.629 42.8167 63.5816 39.9525 63.4868C37.0866 63.392 34.0695 63.2501 31.4526 63.038C28.8061 62.8236 26.6588 62.5435 25.4786 62.1962L24.914 64.1148ZM18.4656 57.137C19.297 60.4929 21.7448 63.1877 24.9155 64.1153L25.4771 62.1957C23.0492 61.4855 21.0827 59.3837 20.4069 56.656L18.4656 57.137ZM18.0904 39.816C17.0904 39.816 17.0904 39.8161 17.0904 39.8162C17.0904 39.8163 17.0904 39.8165 17.0904 39.8167C17.0904 39.8172 17.0904 39.8178 17.0904 39.8185C17.0904 39.8201 17.0904 39.8224 17.0904 39.8253C17.0904 39.8312 17.0904 39.8399 17.0904 39.8512C17.0905 39.8739 17.0906 39.9075 17.0907 39.9512C17.0911 40.0387 17.0917 40.1672 17.0931 40.3324C17.0957 40.6628 17.101 41.14 17.1116 41.7295C17.1327 42.9082 17.175 44.5378 17.2597 46.3412C17.4278 49.92 17.7662 54.2796 18.4649 57.1343L20.4075 56.6588C19.7604 54.0149 19.4259 49.8343 19.2575 46.2474C19.174 44.468 19.1322 42.8585 19.1113 41.6936C19.1008 41.1114 19.0956 40.6409 19.093 40.3164C19.0917 40.1541 19.091 40.0284 19.0907 39.9436C19.0906 39.9012 19.0905 39.869 19.0904 39.8475C19.0904 39.8368 19.0904 39.8288 19.0904 39.8235C19.0904 39.8208 19.0904 39.8189 19.0904 39.8176C19.0904 39.817 19.0904 39.8166 19.0904 39.8163C19.0904 39.8161 19.0904 39.8161 19.0904 39.816C19.0904 39.816 19.0904 39.816 18.0904 39.816ZM18.4643 22.5C17.7663 25.3823 17.4278 29.7402 17.2597 33.3126C17.175 35.1124 17.1327 36.7365 17.1116 37.9106C17.101 38.4978 17.0957 38.973 17.0931 39.3019C17.0917 39.4664 17.0911 39.5943 17.0907 39.6814C17.0906 39.7249 17.0905 39.7583 17.0904 39.7809C17.0904 39.7922 17.0904 39.8008 17.0904 39.8067C17.0904 39.8096 17.0904 39.8119 17.0904 39.8134C17.0904 39.8142 17.0904 39.8148 17.0904 39.8152C17.0904 39.8154 17.0904 39.8156 17.0904 39.8157C17.0904 39.8159 17.0904 39.816 18.0904 39.816C19.0904 39.816 19.0904 39.816 19.0904 39.816C19.0904 39.8159 19.0904 39.8158 19.0904 39.8157C19.0904 39.8154 19.0904 39.815 19.0904 39.8143C19.0904 39.8131 19.0904 39.8112 19.0904 39.8085C19.0904 39.8033 19.0904 39.7953 19.0904 39.7846C19.0905 39.7633 19.0906 39.7312 19.0907 39.689C19.091 39.6046 19.0917 39.4795 19.093 39.318C19.0956 38.995 19.1008 38.5265 19.1113 37.9466C19.1322 36.7864 19.174 35.1823 19.2575 33.4066C19.4259 29.828 19.7603 25.6456 20.4081 22.9708L18.4643 22.5ZM24.9104 15.4597C21.795 16.389 19.2963 19.1419 18.4656 22.4949L20.4069 22.9759C21.0834 20.2454 23.1067 18.0848 25.4821 17.3762L24.9104 15.4597ZM50.7667 14.9556C50.7667 13.9556 50.7666 13.9556 50.7664 13.9556C50.7662 13.9556 50.7659 13.9556 50.7656 13.9556C50.7649 13.9556 50.764 13.9556 50.7627 13.9556C50.7601 13.9556 50.7563 13.9556 50.7513 13.9556C50.7412 13.9556 50.7263 13.9556 50.7067 13.9556C50.6674 13.9557 50.6093 13.9557 50.5333 13.9559C50.3814 13.9563 50.1583 13.957 49.8727 13.9584C49.3015 13.9613 48.4803 13.967 47.479 13.9785C45.477 14.0014 42.753 14.0472 39.8675 14.1389C36.9837 14.2305 33.9301 14.3682 31.2714 14.5755C28.6422 14.7806 26.3096 15.0595 24.9213 15.4565L25.4712 17.3794C26.64 17.0452 28.7822 16.7757 31.4269 16.5695C34.0421 16.3655 37.0614 16.229 39.931 16.1379C42.7989 16.0467 45.5086 16.0012 47.5019 15.9784C48.4983 15.967 49.3152 15.9613 49.8827 15.9584C50.1665 15.957 50.3878 15.9563 50.5381 15.9559C50.6132 15.9557 50.6705 15.9557 50.709 15.9556C50.7282 15.9556 50.7427 15.9556 50.7524 15.9556C50.7572 15.9556 50.7608 15.9556 50.7632 15.9556C50.7644 15.9556 50.7653 15.9556 50.7659 15.9556C50.7662 15.9556 50.7664 15.9556 50.7665 15.9556C50.7666 15.9556 50.7667 15.9556 50.7667 14.9556ZM76.6221 15.5179C75.2302 15.104 72.8941 14.8137 70.265 14.6005C67.6055 14.3847 64.5512 14.2415 61.6671 14.1462C58.7813 14.0509 56.057 14.0032 54.0548 13.9794C53.0534 13.9675 52.2321 13.9615 51.6609 13.9586C51.3752 13.9571 51.1521 13.9563 51.0001 13.9559C50.9242 13.9558 50.866 13.9557 50.8267 13.9556C50.8071 13.9556 50.7922 13.9556 50.7821 13.9556C50.7771 13.9556 50.7733 13.9556 50.7707 13.9556C50.7694 13.9556 50.7684 13.9556 50.7678 13.9556C50.7674 13.9556 50.7672 13.9556 50.767 13.9556C50.7668 13.9556 50.7667 13.9556 50.7667 14.9556C50.7667 15.9556 50.7667 15.9556 50.7668 15.9556C50.767 15.9556 50.7672 15.9556 50.7675 15.9556C50.768 15.9556 50.7689 15.9556 50.7701 15.9556C50.7725 15.9556 50.7761 15.9556 50.7809 15.9556C50.7906 15.9556 50.8051 15.9556 50.8243 15.9556C50.8628 15.9557 50.9201 15.9558 50.9952 15.9559C51.1454 15.9563 51.3667 15.957 51.6504 15.9585C52.2179 15.9615 53.0347 15.9674 54.031 15.9793C56.0241 16.003 58.7336 16.0504 61.6011 16.1451C64.4704 16.2399 67.4891 16.3819 70.1034 16.5939C72.7482 16.8084 74.8869 17.0885 76.052 17.435L76.6221 15.5179ZM44.7834 50.9033L61.7945 40.2572L60.7335 38.5618L43.7224 49.2079L44.7834 50.9033ZM43.2529 28.7634V50.0556H45.2529V28.7634H43.2529ZM61.7945 38.5618L44.7834 27.9157L43.7224 29.6111L60.7335 40.2572L61.7945 38.5618Z" fill="white" fill-opacity="0.5" mask="url(#path-1-inside-1_1_1200)"/>
</g>
<defs>
<filter id="filter0_d_1_1200" x="0.0903931" y="0.955566" width="101.353" height="85.7207" filterUnits="userSpaceOnUse" color-interpolation-filters="sRGB">
<feFlood flood-opacity="0" result="BackgroundImageFix"/>
<feColorMatrix in="SourceAlpha" type="matrix" values="0 0 0 0 0 0 0 0 0 0 0 0 0 0 0 0 0 0 127 0" result="hardAlpha"/>
<feOffset dy="4"/>
<feGaussianBlur stdDeviation="9"/>
<feComposite in2="hardAlpha" operator="out"/>
<feColorMatrix type="matrix" values="0 0 0 0 0.337255 0 0 0 0 1 0 0 0 0 0.921569 0 0 0 0.7 0"/>
<feBlend mode="normal" in2="BackgroundImageFix" result="effect1_dropShadow_1_1200"/>
<feBlend mode="normal" in="SourceGraphic" in2="effect1_dropShadow_1_1200" result="shape"/>
</filter>
</defs>
</svg>
