<svg width="99" height="90" viewBox="0 0 99 90" fill="none" xmlns="http://www.w3.org/2000/svg">
<g filter="url(#filter0_d_1_1187)">
<path d="M22.821 37.2808C39.4371 29.8617 50.5171 24.9705 56.0609 22.6073C71.8899 15.86 75.179 14.6879 77.3228 14.6488C77.7943 14.6407 78.8486 14.7605 79.5315 15.3284C80.1081 15.8079 80.2668 16.4556 80.3427 16.9103C80.4186 17.3649 80.5131 18.4006 80.438 19.2098C79.5802 28.4464 75.8686 50.8612 73.9804 61.2063C73.1814 65.5837 71.6082 67.0514 70.0851 67.195C66.7751 67.5072 64.2617 64.9533 61.0558 62.7996C56.0392 59.4295 53.2052 57.3316 48.3358 54.043C42.7083 50.2424 46.3564 48.1536 49.5634 44.7399C50.4027 43.8465 64.9866 30.2519 65.2689 29.0186C65.3042 28.8644 65.3369 28.2894 65.0036 27.9859C64.6704 27.6823 64.1785 27.7861 63.8235 27.8687C63.3204 27.9857 55.3064 33.4142 39.7815 44.1543C37.5067 45.7551 35.4463 46.5351 33.6003 46.4942C31.5651 46.4491 27.6504 45.3149 24.7402 44.3454C21.1707 43.1563 18.3337 42.5276 18.5807 40.5081C18.7094 39.4562 20.1228 38.3805 22.821 37.2808Z" fill="white" fill-opacity="0.7" shape-rendering="crispEdges"/>
<path d="M23.0097 37.7439L23.0174 37.7408L23.0249 37.7374C39.6416 30.3179 50.7177 25.4285 56.257 23.0673C64.1733 19.6928 68.9421 17.7177 71.9981 16.5811C75.0628 15.4414 76.3517 15.1667 77.3316 15.1487C77.5273 15.1454 77.8655 15.1692 78.2289 15.2582C78.5953 15.348 78.9498 15.4949 79.2118 15.7128C79.6447 16.0728 79.7784 16.5669 79.8495 16.9926C79.9208 17.4194 80.0101 18.4098 79.9401 19.1636C79.0847 28.3753 75.3771 50.7697 73.4885 61.1165C72.6967 65.4545 71.1973 66.5879 70.0382 66.6973C68.5345 66.8391 67.1887 66.3362 65.7893 65.4936C65.0884 65.0716 64.3857 64.5717 63.6479 64.0346C63.5256 63.9456 63.4023 63.8554 63.2779 63.7646C62.6572 63.3111 62.0107 62.8387 61.3346 62.3845C58.8302 60.7021 56.8706 59.3372 54.9268 57.9807L54.6698 57.8013C52.8118 56.5046 50.9465 55.2028 48.6156 53.6286C47.2356 52.6966 46.4905 51.9114 46.148 51.2391C45.8229 50.6009 45.8438 50.0331 46.0963 49.4431C46.3628 48.8205 46.8874 48.176 47.5881 47.4453C47.8952 47.125 48.2266 46.7977 48.5749 46.4535C48.6199 46.4091 48.6651 46.3644 48.7106 46.3194C49.1066 45.9279 49.5201 45.5162 49.9279 45.0822C50.1206 44.8771 51.0712 43.9714 52.4205 42.686C53.9375 41.2408 55.9585 39.3154 57.9728 37.366C59.8667 35.5329 61.7469 33.6857 63.1725 32.2181C63.8846 31.485 64.4882 30.8416 64.9247 30.3397C65.1423 30.0894 65.3243 29.8677 65.4588 29.6838C65.5259 29.592 65.586 29.5032 65.6339 29.4205C65.6772 29.3459 65.7304 29.2431 65.7563 29.1302C65.7885 28.9894 65.8067 28.7449 65.7693 28.4867C65.7322 28.2299 65.6282 27.8784 65.3403 27.6162C65.0524 27.354 64.7097 27.2848 64.4257 27.2825C64.1499 27.2803 63.8845 27.3411 63.7102 27.3817C63.6013 27.407 63.4803 27.4714 63.4031 27.5132C63.3025 27.5677 63.1751 27.642 63.0234 27.7341C62.719 27.9188 62.2988 28.1858 61.7651 28.5333C60.6965 29.2291 59.1594 30.2563 57.1552 31.6139C53.1461 34.3296 47.2598 38.3728 39.497 43.7431L39.4937 43.7454C37.2644 45.3142 35.3088 46.0319 33.6113 45.9943C32.6559 45.9732 31.2167 45.6918 29.6228 45.2822C28.0408 44.8757 26.3463 44.3535 24.8982 43.8711C24.4531 43.7228 24.0249 43.5848 23.6162 43.453C22.3499 43.0448 21.2703 42.6967 20.4516 42.2903C19.9168 42.0248 19.5492 41.7595 19.3286 41.4816C19.1229 41.2226 19.0319 40.9379 19.077 40.5688C19.1169 40.2433 19.372 39.8187 20.0401 39.3103C20.6967 38.8105 21.6789 38.2862 23.0097 37.7439Z" stroke="white" stroke-opacity="0.5" shape-rendering="crispEdges"/>
</g>
<defs>
<filter id="filter0_d_1_1187" x="0.565735" y="0.648438" width="97.8998" height="88.5728" filterUnits="userSpaceOnUse" color-interpolation-filters="sRGB">
<feFlood flood-opacity="0" result="BackgroundImageFix"/>
<feColorMatrix in="SourceAlpha" type="matrix" values="0 0 0 0 0 0 0 0 0 0 0 0 0 0 0 0 0 0 127 0" result="hardAlpha"/>
<feOffset dy="4"/>
<feGaussianBlur stdDeviation="9"/>
<feComposite in2="hardAlpha" operator="out"/>
<feColorMatrix type="matrix" values="0 0 0 0 0.803922 0 0 0 0 0.388235 0 0 0 0 1 0 0 0 0.7 0"/>
<feBlend mode="normal" in2="BackgroundImageFix" result="effect1_dropShadow_1_1187"/>
<feBlend mode="normal" in="SourceGraphic" in2="effect1_dropShadow_1_1187" result="shape"/>
</filter>
</defs>
</svg>
