<svg width="2265" height="290" viewBox="0 0 2265 290" fill="none" xmlns="http://www.w3.org/2000/svg">
    <g filter="url(#filter0_b_1_1347)">
        <rect x="34.2524" y="1" width="2230" height="288.872" fill="white" fill-opacity="0.04" />
        <rect x="35.2524" y="2" width="2228" height="286.872" stroke="url(#paint0_linear_1_1347)"
            stroke-width="2" />
    </g>
    <g opacity="0.68">
        <path d="M577.503 1.11193L577.492 170.122L1.00862 201.784" stroke="white"
            stroke-opacity="0.2" stroke-width="0.25" stroke-linecap="round" stroke-linejoin="round" />
        <path d="M670.872 1.11833L670.86 170.128L1.00762 216.125" stroke="white"
            stroke-opacity="0.2" stroke-width="0.25" stroke-linecap="round" stroke-linejoin="round" />
        <path d="M764.24 1.12499L764.228 170.135L1.00524 240.019" stroke="white"
            stroke-opacity="0.2" stroke-width="0.25" stroke-linecap="round" stroke-linejoin="round" />
        <path d="M857.616 1.13132L857.605 170.141L1.44605 287.726" stroke="white"
            stroke-opacity="0.2" stroke-width="0.25" stroke-linecap="round" stroke-linejoin="round" />
        <path d="M950.983 1.13781L950.971 170.147L522.52 287.762" stroke="white"
            stroke-opacity="0.2" stroke-width="0.25" stroke-linecap="round" stroke-linejoin="round" />
        <path d="M1044.35 1.14442L1044.34 170.154L1043.6 287.798" stroke="white"
            stroke-opacity="0.2" stroke-width="0.25" stroke-linecap="round" stroke-linejoin="round" />
        <path d="M1137.73 1.15063L1137.72 170.16L1564.68 287.834" stroke="white"
            stroke-opacity="0.2" stroke-width="0.25" stroke-linecap="round" stroke-linejoin="round" />
        <path d="M1231.1 1.1571L1231.09 170.167L2085.75 287.87" stroke="white" stroke-opacity="0.2"
            stroke-width="0.25" stroke-linecap="round" stroke-linejoin="round" />
        <path d="M1324.48 1.16382L1324.46 170.173L2088 240.273" stroke="white" stroke-opacity="0.2"
            stroke-width="0.25" stroke-linecap="round" stroke-linejoin="round" />
        <path d="M1417.84 1.17004L1417.83 170.18L2088 216.33" stroke="white" stroke-opacity="0.2"
            stroke-width="0.25" stroke-linecap="round" stroke-linejoin="round" />
        <path d="M1511.21 1.17639L1511.2 170.186L2088 201.968" stroke="white" stroke-opacity="0.2"
            stroke-width="0.25" stroke-linecap="round" stroke-linejoin="round" />
        <path d="M1604.59 1.18286L1604.58 170.192L2088 192.394" stroke="white" stroke-opacity="0.2"
            stroke-width="0.25" stroke-linecap="round" stroke-linejoin="round" />
        <path d="M1697.96 1.18933L1697.95 170.199L2088 185.557" stroke="white" stroke-opacity="0.2"
            stroke-width="0.25" stroke-linecap="round" stroke-linejoin="round" />
        <path d="M1791.32 1.19556L1791.31 170.205L2088.01 180.429" stroke="white"
            stroke-opacity="0.2" stroke-width="0.25" stroke-linecap="round" stroke-linejoin="round" />
        <path d="M1884.7 1.20215L1884.69 170.212L2088.01 176.441" stroke="white"
            stroke-opacity="0.2" stroke-width="0.25" stroke-linecap="round" stroke-linejoin="round" />
        <path d="M1978.07 1.2085L1978.06 170.218L2088 173.251" stroke="white" stroke-opacity="0.2"
            stroke-width="0.25" stroke-linecap="round" stroke-linejoin="round" />
        <path d="M2071.44 1.21521L2071.42 170.225L2088.01 170.64" stroke="white"
            stroke-opacity="0.2" stroke-width="0.25" stroke-linecap="round" stroke-linejoin="round" />
        <path d="M1.00902 185.392L390.747 170.109L390.759 1.09904" stroke="white"
            stroke-opacity="0.2" stroke-width="0.25" stroke-linecap="round" stroke-linejoin="round" />
        <path d="M484.127 1.10569L484.116 170.115L1.00854 192.223" stroke="white"
            stroke-opacity="0.2" stroke-width="0.25" stroke-linecap="round" stroke-linejoin="round" />
        <path d="M297.391 1.09287L297.38 170.103L1.00744 180.27" stroke="white" stroke-opacity="0.2"
            stroke-width="0.25" stroke-linecap="round" stroke-linejoin="round" />
        <path d="M204.012 1.08633L204.001 170.096L1.01033 176.284" stroke="white"
            stroke-opacity="0.2" stroke-width="0.25" stroke-linecap="round" stroke-linejoin="round" />
        <path d="M110.646 1.07997L110.635 170.09L1.00989 173.096" stroke="white"
            stroke-opacity="0.2" stroke-width="0.25" stroke-linecap="round" stroke-linejoin="round" />
        <path d="M17.2678 1.07351L17.2561 170.083L1.01001 170.488" stroke="white"
            stroke-opacity="0.2" stroke-width="0.25" stroke-linecap="round" stroke-linejoin="round" />
        <path d="M1.01097 157.258L2088.01 157.402" stroke="white" stroke-opacity="0.2"
            stroke-width="0.25" stroke-linecap="round" stroke-linejoin="round" />
        <path d="M1.01195 144.432L2088.01 144.576" stroke="white" stroke-opacity="0.2"
            stroke-width="0.25" stroke-linecap="round" stroke-linejoin="round" />
        <path d="M1.01244 131.608L2088.01 131.752" stroke="white" stroke-opacity="0.2"
            stroke-width="0.25" stroke-linecap="round" stroke-linejoin="round" />
        <path d="M1.01366 118.784L2088.01 118.928" stroke="white" stroke-opacity="0.2"
            stroke-width="0.25" stroke-linecap="round" stroke-linejoin="round" />
        <path d="M1.01463 105.958L2088.01 106.102" stroke="white" stroke-opacity="0.2"
            stroke-width="0.25" stroke-linecap="round" stroke-linejoin="round" />
        <path d="M1.01537 93.1337L2088.01 93.2777" stroke="white" stroke-opacity="0.2"
            stroke-width="0.25" stroke-linecap="round" stroke-linejoin="round" />
        <path d="M1.0161 80.3096L2088.01 80.4534" stroke="white" stroke-opacity="0.2"
            stroke-width="0.25" stroke-linecap="round" stroke-linejoin="round" />
        <path d="M1.01707 67.484L2088.01 67.6278" stroke="white" stroke-opacity="0.2"
            stroke-width="0.25" stroke-linecap="round" stroke-linejoin="round" />
        <path d="M1.0183 54.6593L2088.02 54.8033" stroke="white" stroke-opacity="0.2"
            stroke-width="0.25" stroke-linecap="round" stroke-linejoin="round" />
        <path d="M1.01878 41.8351L2088.02 41.9791" stroke="white" stroke-opacity="0.2"
            stroke-width="0.25" stroke-linecap="round" stroke-linejoin="round" />
        <path d="M1.01976 29.0095L2088.02 29.1534" stroke="white" stroke-opacity="0.2"
            stroke-width="0.25" stroke-linecap="round" stroke-linejoin="round" />
        <path d="M1.02074 16.1849L2088.02 16.3289" stroke="white" stroke-opacity="0.2"
            stroke-width="0.25" stroke-linecap="round" stroke-linejoin="round" />
        <path d="M1.02147 3.35975L2088.02 3.50373" stroke="white" stroke-opacity="0.2"
            stroke-width="0.25" stroke-linecap="round" stroke-linejoin="round" />
        <path d="M2088 226.649L1.00609 226.505" stroke="white" stroke-opacity="0.2"
            stroke-width="0.25" stroke-linecap="round" stroke-linejoin="round" />
        <path d="M2088 216.736L1.00682 216.592" stroke="white" stroke-opacity="0.2"
            stroke-width="0.25" stroke-linecap="round" stroke-linejoin="round" />
        <path d="M2088 208.96L1.00731 208.817" stroke="white" stroke-opacity="0.2"
            stroke-width="0.25" stroke-linecap="round" stroke-linejoin="round" />
        <path d="M2088 239.717L1.00536 239.573" stroke="white" stroke-opacity="0.2"
            stroke-width="0.25" stroke-linecap="round" stroke-linejoin="round" />
        <path d="M2088 202.696L1.0078 202.552" stroke="white" stroke-opacity="0.2"
            stroke-width="0.25" stroke-linecap="round" stroke-linejoin="round" />
        <path d="M2088.01 197.542L1.00829 197.398" stroke="white" stroke-opacity="0.2"
            stroke-width="0.25" stroke-linecap="round" stroke-linejoin="round" />
        <path d="M2088.01 171.379L1.00999 171.235" stroke="white" stroke-opacity="0.2"
            stroke-width="0.25" stroke-linecap="round" stroke-linejoin="round" />
        <path d="M2088.01 170.226L1.00999 170.082" stroke="white" stroke-opacity="0.2"
            stroke-width="0.25" stroke-linecap="round" stroke-linejoin="round" />
        <path d="M2088.01 174.024L1.00999 173.881" stroke="white" stroke-opacity="0.2"
            stroke-width="0.25" stroke-linecap="round" stroke-linejoin="round" />
        <path d="M2088.01 172.64L1.01024 172.496" stroke="white" stroke-opacity="0.2"
            stroke-width="0.25" stroke-linecap="round" stroke-linejoin="round" />
        <path d="M2088.01 186.409L1.00902 186.265" stroke="white" stroke-opacity="0.2"
            stroke-width="0.25" stroke-linecap="round" stroke-linejoin="round" />
        <path d="M2088.01 193.226L1.00853 193.082" stroke="white" stroke-opacity="0.2"
            stroke-width="0.25" stroke-linecap="round" stroke-linejoin="round" />
        <path d="M2088 257.733L1.00389 257.589" stroke="white" stroke-opacity="0.2"
            stroke-width="0.25" stroke-linecap="round" stroke-linejoin="round" />
        <path d="M2088.01 177.25L1.00951 177.106" stroke="white" stroke-opacity="0.2"
            stroke-width="0.25" stroke-linecap="round" stroke-linejoin="round" />
        <path d="M2088.01 175.554L1.00975 175.41" stroke="white" stroke-opacity="0.2"
            stroke-width="0.25" stroke-linecap="round" stroke-linejoin="round" />
        <path d="M2088.01 183.671L1.00877 183.527" stroke="white" stroke-opacity="0.2"
            stroke-width="0.25" stroke-linecap="round" stroke-linejoin="round" />
        <path d="M2088.01 181.266L1.00926 181.123" stroke="white" stroke-opacity="0.2"
            stroke-width="0.25" stroke-linecap="round" stroke-linejoin="round" />
        <path d="M2088.01 179.142L1.00951 178.998" stroke="white" stroke-opacity="0.2"
            stroke-width="0.25" stroke-linecap="round" stroke-linejoin="round" />
        <path d="M2088.01 189.561L1.00877 189.417" stroke="white" stroke-opacity="0.2"
            stroke-width="0.25" stroke-linecap="round" stroke-linejoin="round" />
        <path d="M2085.75 287.871L1.44603 287.727" stroke="white" stroke-opacity="0.2"
            stroke-width="0.25" stroke-linecap="round" stroke-linejoin="round" />
    </g>
    <defs>
        <filter id="filter0_b_1_1347" x="-165.748" y="-199" width="2630" height="688.872"
            filterUnits="userSpaceOnUse" color-interpolation-filters="sRGB">
            <feFlood flood-opacity="0" result="BackgroundImageFix" />
            <feGaussianBlur in="BackgroundImageFix" stdDeviation="100" />
            <feComposite in2="SourceAlpha" operator="in" result="effect1_backgroundBlur_1_1347" />
            <feBlend mode="normal" in="SourceGraphic" in2="effect1_backgroundBlur_1_1347"
                result="shape" />
        </filter>
        <linearGradient id="paint0_linear_1_1347" x1="129.9" y1="0.999819" x2="2271.79" y2="353.229"
            gradientUnits="userSpaceOnUse">
            <stop stop-color="white" stop-opacity="0" />
            <stop offset="0.414678" stop-color="white" stop-opacity="0.55" />
        </linearGradient>
    </defs>
</svg>