<svg width="0" height="0" fill="none" style="visibility: hidden; position: absolute;"
    aria-hidden="true">
    <symbol id="discord" viewBox="0 0 106 90" xmlns="http://www.w3.org/2000/svg">
        <path
            d="M11.0057 4.46083C15.4598 2.3769 20.2224 0.862317 25.2015 0C25.813 1.10554 26.5274 2.59248 27.0199 3.7754C32.3129 2.97942 37.5572 2.97942 42.7527 3.7754C43.2452 2.59248 43.9758 1.10554 44.5928 0C49.5773 0.862317 54.3453 2.38243 58.7994 4.47189C67.7834 18.0479 70.2188 31.2866 69.0011 44.3375C63.0424 48.7873 57.2678 51.4903 51.5906 53.2592C50.1889 51.33 48.9387 49.2792 47.8617 47.1179C49.9128 46.3385 51.8774 45.3767 53.7337 44.2601C53.2412 43.8953 52.7596 43.5139 52.2941 43.1214C40.9722 48.4169 28.6706 48.4169 17.4839 43.1214C17.0131 43.5139 16.5314 43.8953 16.0443 44.2601C17.906 45.3822 19.876 46.344 21.9272 47.1234C20.8502 49.2792 19.6054 51.3355 18.1983 53.2647C12.5157 51.4958 6.7356 48.7928 0.776939 44.3375C-0.651833 29.2082 3.21777 16.0911 11.0057 4.46083ZM46.3192 36.3113C49.718 36.3113 52.5052 33.1384 52.5052 29.2746C52.5052 25.4107 49.7775 22.2323 46.3192 22.2323C42.861 22.2323 40.0738 25.4052 40.1333 29.2746C40.1279 33.1384 42.861 36.3113 46.3192 36.3113ZM23.4588 36.3113C26.8576 36.3113 29.6448 33.1384 29.6448 29.2746C29.6448 25.4107 26.9171 22.2323 23.4588 22.2323C20.0005 22.2323 17.2133 25.4052 17.2728 29.2746C17.2728 33.1384 20.0005 36.3113 23.4588 36.3113Z" />
        <path
            d="M21.2315 47.3895C19.3382 46.6371 17.516 45.7309 15.7862 44.6883L15.1503 44.305L15.7446 43.8599C16.2244 43.5005 16.6993 43.1245 17.1638 42.7373L17.4091 42.5328L17.6978 42.6695C28.7483 47.9005 40.8937 47.9016 52.0823 42.6685L52.372 42.533L52.6165 42.7392C53.074 43.125 53.5475 43.4999 54.0314 43.8583L54.632 44.3033L53.9915 44.6886C52.267 45.7259 50.4498 46.6316 48.5569 47.3841C49.5085 49.2333 50.5893 50.999 51.7851 52.6737C57.2456 50.9368 62.7973 48.3148 68.5236 44.0696C69.6801 31.2329 67.2622 18.221 58.4599 4.8651C54.1868 2.87375 49.624 1.41051 44.8584 0.554536C44.2897 1.60263 43.6541 2.91121 43.2143 3.96758L43.0639 4.32891L42.677 4.26964C37.5321 3.48141 32.3384 3.4812 27.0943 4.26984L26.7083 4.32788L26.5583 3.96758C26.1177 2.90932 25.4956 1.6013 24.9343 0.55488C20.174 1.41076 15.6165 2.86884 11.3437 4.85489C3.7047 16.3111 -0.100105 29.2067 1.25423 44.0696C6.98094 48.3203 12.5381 50.9425 18.0043 52.6795C19.2032 51.0054 20.2802 49.2361 21.2315 47.3895ZM53.0052 29.2746C53.0052 33.352 50.0528 36.8113 46.3192 36.8113C42.5251 36.8113 39.6295 33.3515 39.6333 29.278C39.5724 25.187 42.5305 21.7323 46.3192 21.7323C50.1157 21.7323 53.0052 25.201 53.0052 29.2746ZM30.1448 29.2746C30.1448 33.352 27.1924 36.8113 23.4588 36.8113C19.6639 36.8113 16.7746 33.3508 16.7728 29.2783C16.7118 25.1871 19.67 21.7323 23.4588 21.7323C27.2553 21.7323 30.1448 25.201 30.1448 29.2746Z" />
    </symbol>
    <symbol id="facebook" viewBox="0 0 21 20"
        xmlns="http://www.w3.org/2000/svg">
        <path
            d="M20.0933 9.93723C20.0933 4.57971 15.7099 0.196289 10.3524 0.196289C4.99487 0.196289 0.61145 4.57971 0.61145 9.93723C0.61145 14.8077 4.14254 18.8258 8.76949 19.5564V12.7378H6.33425V9.93723H8.76949V7.74552C8.76949 5.31028 10.2306 3.97091 12.4223 3.97091C13.5182 3.97091 14.6141 4.21443 14.6141 4.21443V6.64966H13.3964C12.1788 6.64966 11.8135 7.38024 11.8135 8.11081V9.93723H14.4923L14.0052 12.7378H11.6918V19.6782C16.5622 18.9476 20.0933 14.8077 20.0933 9.93723Z"/>
    </symbol>
    <symbol id="global" viewBox="0 0 58 59" xmlns="http://www.w3.org/2000/svg">
        <path
            d="M29.0002 53.4163C42.347 53.4163 53.1668 42.5966 53.1668 29.2497C53.1668 15.9028 42.347 5.08301 29.0002 5.08301C15.6533 5.08301 4.8335 15.9028 4.8335 29.2497C4.8335 42.5966 15.6533 53.4163 29.0002 53.4163Z"
            stroke="white" stroke-width="2.6875" stroke-linecap="round" stroke-linejoin="round" />
        <path d="M19.3333 7.5H21.75C17.0375 21.6133 17.0375 36.8867 21.75 51H19.3333" stroke="white"
            stroke-width="2.6875" stroke-linecap="round" stroke-linejoin="round" />
        <path d="M36.25 7.5C40.9625 21.6133 40.9625 36.8867 36.25 51" stroke="white"
            stroke-width="2.6875" stroke-linecap="round" stroke-linejoin="round" />
        <path d="M7.25 38.9167V36.5C21.3633 41.2125 36.6367 41.2125 50.75 36.5V38.9167"
            stroke="white" stroke-width="2.6875" stroke-linecap="round" stroke-linejoin="round" />
        <path d="M7.25 22.0002C21.3633 17.2877 36.6367 17.2877 50.75 22.0002" stroke="white"
            stroke-width="2.6875" stroke-linecap="round" stroke-linejoin="round" />
    </symbol>
    <symbol id="instagram" viewBox="0 0 22 22" xmlns="http://www.w3.org/2000/svg">
        <path
            d="M10.9848 2.65773C13.6635 2.65773 14.0288 2.65773 15.1247 2.65773C16.0988 2.65773 16.5858 2.90125 16.9511 3.02301C17.4381 3.26654 17.8034 3.3883 18.1687 3.75358C18.534 4.11887 18.7775 4.48415 18.8993 4.9712C19.021 5.33649 19.1428 5.82353 19.2646 6.79763C19.2646 7.89348 19.2646 8.13701 19.2646 10.9375C19.2646 13.7381 19.2646 13.9816 19.2646 15.0774C19.2646 16.0515 19.021 16.5386 18.8993 16.9039C18.6558 17.3909 18.534 17.7562 18.1687 18.1215C17.8034 18.4868 17.4381 18.7303 16.9511 18.852C16.5858 18.9738 16.0988 19.0956 15.1247 19.2173C14.0288 19.2173 13.7853 19.2173 10.9848 19.2173C8.18425 19.2173 7.94073 19.2173 6.84487 19.2173C5.87077 19.2173 5.38373 18.9738 5.01844 18.852C4.53139 18.6085 4.16611 18.4868 3.80082 18.1215C3.43554 17.7562 3.19201 17.3909 3.07025 16.9039C2.94849 16.5386 2.82673 16.0515 2.70497 15.0774C2.70497 13.9816 2.70497 13.7381 2.70497 10.9375C2.70497 8.13701 2.70497 7.89348 2.70497 6.79763C2.70497 5.82353 2.94849 5.33649 3.07025 4.9712C3.31378 4.48415 3.43554 4.11887 3.80082 3.75358C4.16611 3.3883 4.53139 3.14477 5.01844 3.02301C5.38373 2.90125 5.87077 2.77949 6.84487 2.65773C7.94073 2.65773 8.30601 2.65773 10.9848 2.65773ZM10.9848 0.831299C8.18425 0.831299 7.94073 0.831299 6.84487 0.831299C5.74901 0.831299 5.01844 1.07482 4.40963 1.31835C3.80082 1.56187 3.19201 1.92716 2.58321 2.53596C1.9744 3.14477 1.73087 3.63182 1.36559 4.36239C1.12206 4.9712 1.0003 5.70177 0.87854 6.79763C0.87854 7.89348 0.87854 8.25877 0.87854 10.9375C0.87854 13.7381 0.87854 13.9816 0.87854 15.0774C0.87854 16.1733 1.12206 16.9039 1.36559 17.5127C1.60911 18.1215 1.9744 18.7303 2.58321 19.3391C3.19201 19.9479 3.67906 20.1914 4.40963 20.5567C5.01844 20.8002 5.74901 20.922 6.84487 21.0438C7.94073 21.0438 8.30601 21.0438 10.9848 21.0438C13.6635 21.0438 14.0288 21.0438 15.1247 21.0438C16.2205 21.0438 16.9511 20.8002 17.5599 20.5567C18.1687 20.3132 18.7775 19.9479 19.3863 19.3391C19.9951 18.7303 20.2387 18.2432 20.604 17.5127C20.8475 16.9039 20.9692 16.1733 21.091 15.0774C21.091 13.9816 21.091 13.6163 21.091 10.9375C21.091 8.25877 21.091 7.89348 21.091 6.79763C21.091 5.70177 20.8475 4.9712 20.604 4.36239C20.3604 3.75358 19.9951 3.14477 19.3863 2.53596C18.7775 1.92716 18.2905 1.68363 17.5599 1.31835C16.9511 1.07482 16.2205 0.953061 15.1247 0.831299C14.0288 0.831299 13.7853 0.831299 10.9848 0.831299Z"/>
        <path
            d="M10.9848 5.70177C8.06249 5.70177 5.74901 8.01525 5.74901 10.9375C5.74901 13.8598 8.06249 16.1733 10.9848 16.1733C13.9071 16.1733 16.2205 13.8598 16.2205 10.9375C16.2205 8.01525 13.9071 5.70177 10.9848 5.70177ZM10.9848 14.3469C9.15834 14.3469 7.57544 12.8857 7.57544 10.9375C7.57544 9.1111 9.03658 7.5282 10.9848 7.5282C12.8112 7.5282 14.3941 8.98934 14.3941 10.9375C14.3941 12.764 12.8112 14.3469 10.9848 14.3469Z"/>
        <path
            d="M16.3423 6.79763C17.0148 6.79763 17.5599 6.25248 17.5599 5.58001C17.5599 4.90754 17.0148 4.36239 16.3423 4.36239C15.6698 4.36239 15.1247 4.90754 15.1247 5.58001C15.1247 6.25248 15.6698 6.79763 16.3423 6.79763Z"/>
    </symbol>
    <symbol id="linkedin" viewBox="0 0 21 20" xmlns="http://www.w3.org/2000/svg">
        <path
            d="M5.28993 19.6782H1.15001V6.64966H5.28993V19.6782ZM3.21997 4.82324C1.88059 4.82324 0.906494 3.84914 0.906494 2.50976C0.906494 1.17038 2.00235 0.196289 3.21997 0.196289C4.55935 0.196289 5.53345 1.17038 5.53345 2.50976C5.53345 3.84914 4.55935 4.82324 3.21997 4.82324ZM20.3884 19.6782H16.2485V12.616C16.2485 10.546 15.3961 9.93723 14.1785 9.93723C12.9609 9.93723 11.7433 10.9113 11.7433 12.7378V19.6782H7.60339V6.64966H11.4998V8.47609C11.8651 7.62376 13.3262 6.28438 15.3961 6.28438C17.7096 6.28438 20.1449 7.62376 20.1449 11.6419V19.6782H20.3884Z"/>
    </symbol>
    <symbol id="logo" viewBox="0 0 28 28" xmlns="http://www.w3.org/2000/svg">
        <path d="M2.91663 2.9165L25.0833 25.0832V11.361L16.6388 2.9165V25.0832H2.91663V2.9165Z"
            stroke-width="3" stroke-linejoin="round" />
    </symbol>
    <symbol id="star" viewBox="0 0 46 46" xmlns="http://www.w3.org/2000/svg">
        <path
            d="M23 0L26.2527 19.7473L46 23L26.2527 26.2527L23 46L19.7473 26.2527L0 23L19.7473 19.7473L23 0Z"/>
    </symbol>
    <symbol id="subtract" viewBox="0 0 102 87" xmlns="http://www.w3.org/2000/svg">
        <g filter="url(#filter0_d_1_1200__subtract)">
            <mask id="path-1-inside-1_1_1200__subtract" fill="white">
                <path fill-rule="evenodd" clip-rule="evenodd"
                    d="M76.3371 16.4764C79.1364 17.2954 81.3435 19.6937 82.0972 22.7354C83.4968 28.2924 83.443 39.8745 83.443 39.8745C83.443 39.8745 83.443 51.398 82.0972 56.955C81.3435 59.9968 79.1364 62.3951 76.3371 63.214C71.223 64.6764 50.7667 64.6764 50.7667 64.6764C50.7667 64.6764 30.3642 64.6764 25.1963 63.1555C22.397 62.3366 20.1899 59.9383 19.4362 56.8965C18.0904 51.398 18.0904 39.816 18.0904 39.816C18.0904 39.816 18.0904 28.2924 19.4362 22.7354C20.1899 19.6937 22.4508 17.2369 25.1963 16.4179C30.3104 14.9556 50.7667 14.9556 50.7667 14.9556C50.7667 14.9556 71.223 14.9556 76.3371 16.4764ZM61.264 39.4095L44.2529 50.0556V28.7634L61.264 39.4095Z" />
            </mask>
            <path fill-rule="evenodd" clip-rule="evenodd"
                d="M76.3371 16.4764C79.1364 17.2954 81.3435 19.6937 82.0972 22.7354C83.4968 28.2924 83.443 39.8745 83.443 39.8745C83.443 39.8745 83.443 51.398 82.0972 56.955C81.3435 59.9968 79.1364 62.3951 76.3371 63.214C71.223 64.6764 50.7667 64.6764 50.7667 64.6764C50.7667 64.6764 30.3642 64.6764 25.1963 63.1555C22.397 62.3366 20.1899 59.9383 19.4362 56.8965C18.0904 51.398 18.0904 39.816 18.0904 39.816C18.0904 39.816 18.0904 28.2924 19.4362 22.7354C20.1899 19.6937 22.4508 17.2369 25.1963 16.4179C30.3104 14.9556 50.7667 14.9556 50.7667 14.9556C50.7667 14.9556 71.223 14.9556 76.3371 16.4764ZM61.264 39.4095L44.2529 50.0556V28.7634L61.264 39.4095Z"
                fill="white" fill-opacity="0.7" shape-rendering="crispEdges" />
            <path
                d="M82.0972 22.7354L81.1265 22.9759L81.1274 22.9797L82.0972 22.7354ZM76.3371 16.4764L76.052 17.435L76.0563 17.4362L76.3371 16.4764ZM83.443 39.8745L82.443 39.8698V39.8745H83.443ZM82.0972 56.955L83.0678 57.1955L83.0691 57.1904L82.0972 56.955ZM76.3371 63.214L76.612 64.1755L76.6179 64.1738L76.3371 63.214ZM50.7667 64.6764L50.7667 65.6764L50.7667 65.6764L50.7667 64.6764ZM25.1963 63.1555L25.4786 62.1962L25.4771 62.1957L25.1963 63.1555ZM19.4362 56.8965L18.4649 57.1343L18.4656 57.137L19.4362 56.8965ZM19.4362 22.7354L18.4655 22.4949L18.4643 22.5L19.4362 22.7354ZM25.1963 16.4179L24.9213 15.4564L24.9104 15.4597L25.1963 16.4179ZM44.2529 50.0556H43.2529V51.8611L44.7834 50.9033L44.2529 50.0556ZM61.264 39.4095L61.7945 40.2572L63.149 39.4095L61.7945 38.5618L61.264 39.4095ZM44.2529 28.7634L44.7834 27.9157L43.2529 26.9579V28.7634H44.2529ZM83.0678 22.4949C82.2363 19.1391 79.7886 16.4443 76.6179 15.5167L76.0563 17.4362C78.4841 18.1465 80.4507 20.2483 81.1265 22.9759L83.0678 22.4949ZM83.443 39.8745C84.443 39.8791 84.443 39.879 84.443 39.8789C84.443 39.8788 84.443 39.8786 84.443 39.8783C84.443 39.8779 84.443 39.8773 84.443 39.8765C84.443 39.875 84.443 39.8727 84.443 39.8697C84.443 39.8638 84.443 39.8551 84.4431 39.8438C84.4431 39.821 84.4432 39.7875 84.4432 39.7437C84.4433 39.6561 84.4432 39.5274 84.4425 39.3621C84.4413 39.0315 84.4379 38.5538 84.4294 37.9636C84.4125 36.7836 84.3752 35.1517 84.2939 33.3439C84.1326 29.7572 83.7943 25.3793 83.0669 22.4912L81.1274 22.9797C81.7997 25.6485 82.1343 29.8402 82.2959 33.4338C82.3761 35.2161 82.4129 36.827 82.4296 37.9923C82.438 38.5747 82.4413 39.0454 82.4426 39.3698C82.4432 39.532 82.4433 39.6577 82.4432 39.7424C82.4432 39.7848 82.4431 39.817 82.4431 39.8384C82.4431 39.8491 82.443 39.8571 82.443 39.8624C82.443 39.865 82.443 39.867 82.443 39.8682C82.443 39.8688 82.443 39.8693 82.443 39.8695C82.443 39.8697 82.443 39.8697 82.443 39.8698C82.443 39.8698 82.443 39.8698 83.443 39.8745ZM83.0691 57.1904C83.7671 54.3082 84.1056 49.9503 84.2736 46.3779C84.3583 44.5781 84.4006 42.954 84.4218 41.7799C84.4324 41.1926 84.4377 40.7174 84.4403 40.3885C84.4416 40.2241 84.4423 40.0962 84.4426 40.0091C84.4428 39.9655 84.4429 39.9322 84.4429 39.9096C84.4429 39.8983 84.443 39.8896 84.443 39.8838C84.443 39.8808 84.443 39.8786 84.443 39.877C84.443 39.8763 84.443 39.8757 84.443 39.8752C84.443 39.875 84.443 39.8748 84.443 39.8747C84.443 39.8746 84.443 39.8745 83.443 39.8745C82.443 39.8745 82.443 39.8745 82.443 39.8745C82.443 39.8746 82.443 39.8746 82.443 39.8748C82.443 39.875 82.443 39.8755 82.443 39.8761C82.443 39.8774 82.443 39.8793 82.443 39.8819C82.443 39.8872 82.443 39.8952 82.4429 39.9058C82.4429 39.9272 82.4428 39.9592 82.4426 40.0014C82.4423 40.0858 82.4417 40.2109 82.4404 40.3724C82.4378 40.6954 82.4326 41.1639 82.4221 41.7438C82.4012 42.9041 82.3594 44.5082 82.2758 46.2839C82.1075 49.8625 81.773 54.0449 81.1253 56.7197L83.0691 57.1904ZM76.6179 64.1738C79.7886 63.2462 82.2363 60.5514 83.0678 57.1955L81.1265 56.7145C80.4507 59.4422 78.4841 61.544 76.0563 62.2542L76.6179 64.1738ZM50.7667 64.6764C50.7667 65.6764 50.7668 65.6764 50.767 65.6764C50.7672 65.6764 50.7674 65.6764 50.7678 65.6764C50.7684 65.6764 50.7694 65.6764 50.7707 65.6764C50.7733 65.6764 50.7771 65.6764 50.7821 65.6764C50.7921 65.6764 50.807 65.6764 50.8267 65.6763C50.8659 65.6763 50.9241 65.6762 51 65.676C51.1519 65.6757 51.3751 65.675 51.6607 65.6735C52.2319 65.6707 53.0531 65.6649 54.0543 65.6535C56.0564 65.6306 58.7804 65.5848 61.6659 65.4931C64.5496 65.4015 67.6032 65.2638 70.262 65.0564C72.8911 64.8514 75.2238 64.5725 76.612 64.1755L76.0622 62.2525C74.8934 62.5868 72.7512 62.8562 70.1065 63.0625C67.4913 63.2664 64.4719 63.4029 61.6023 63.4941C58.7345 63.5852 56.0247 63.6308 54.0315 63.6536C53.035 63.665 52.2181 63.6707 51.6506 63.6735C51.3669 63.675 51.1455 63.6757 50.9953 63.676C50.9202 63.6762 50.8628 63.6763 50.8244 63.6763C50.8051 63.6764 50.7906 63.6764 50.781 63.6764C50.7761 63.6764 50.7725 63.6764 50.7701 63.6764C50.7689 63.6764 50.7681 63.6764 50.7675 63.6764C50.7672 63.6764 50.767 63.6764 50.7668 63.6764C50.7667 63.6764 50.7667 63.6764 50.7667 64.6764ZM24.914 64.1148C26.3177 64.5279 28.6587 64.8182 31.2911 65.0315C33.9531 65.2472 37.0057 65.3904 39.8864 65.4857C42.7688 65.5811 45.4881 65.6287 47.4861 65.6526C48.4854 65.6645 49.3048 65.6704 49.8747 65.6734C50.1597 65.6749 50.3823 65.6756 50.5338 65.676C50.6096 65.6762 50.6676 65.6763 50.7068 65.6763C50.7264 65.6764 50.7413 65.6764 50.7513 65.6764C50.7563 65.6764 50.7601 65.6764 50.7627 65.6764C50.764 65.6764 50.7649 65.6764 50.7656 65.6764C50.7659 65.6764 50.7662 65.6764 50.7664 65.6764C50.7666 65.6764 50.7667 65.6764 50.7667 64.6764C50.7667 63.6764 50.7666 63.6764 50.7665 63.6764C50.7664 63.6764 50.7662 63.6764 50.7659 63.6764C50.7653 63.6764 50.7644 63.6764 50.7633 63.6764C50.7609 63.6764 50.7573 63.6764 50.7525 63.6764C50.7428 63.6764 50.7284 63.6764 50.7092 63.6763C50.6708 63.6763 50.6137 63.6762 50.5388 63.676C50.3889 63.6757 50.1682 63.6749 49.8851 63.6734C49.3191 63.6705 48.5042 63.6646 47.51 63.6527C45.5211 63.629 42.8167 63.5816 39.9525 63.4868C37.0866 63.392 34.0695 63.2501 31.4526 63.038C28.8061 62.8236 26.6588 62.5435 25.4786 62.1962L24.914 64.1148ZM18.4656 57.137C19.297 60.4929 21.7448 63.1877 24.9155 64.1153L25.4771 62.1957C23.0492 61.4855 21.0827 59.3837 20.4069 56.656L18.4656 57.137ZM18.0904 39.816C17.0904 39.816 17.0904 39.8161 17.0904 39.8162C17.0904 39.8163 17.0904 39.8165 17.0904 39.8167C17.0904 39.8172 17.0904 39.8178 17.0904 39.8185C17.0904 39.8201 17.0904 39.8224 17.0904 39.8253C17.0904 39.8312 17.0904 39.8399 17.0904 39.8512C17.0905 39.8739 17.0906 39.9075 17.0907 39.9512C17.0911 40.0387 17.0917 40.1672 17.0931 40.3324C17.0957 40.6628 17.101 41.14 17.1116 41.7295C17.1327 42.9082 17.175 44.5378 17.2597 46.3412C17.4278 49.92 17.7662 54.2796 18.4649 57.1343L20.4075 56.6588C19.7604 54.0149 19.4259 49.8343 19.2575 46.2474C19.174 44.468 19.1322 42.8585 19.1113 41.6936C19.1008 41.1114 19.0956 40.6409 19.093 40.3164C19.0917 40.1541 19.091 40.0284 19.0907 39.9436C19.0906 39.9012 19.0905 39.869 19.0904 39.8475C19.0904 39.8368 19.0904 39.8288 19.0904 39.8235C19.0904 39.8208 19.0904 39.8189 19.0904 39.8176C19.0904 39.817 19.0904 39.8166 19.0904 39.8163C19.0904 39.8161 19.0904 39.8161 19.0904 39.816C19.0904 39.816 19.0904 39.816 18.0904 39.816ZM18.4643 22.5C17.7663 25.3823 17.4278 29.7402 17.2597 33.3126C17.175 35.1124 17.1327 36.7365 17.1116 37.9106C17.101 38.4978 17.0957 38.973 17.0931 39.3019C17.0917 39.4664 17.0911 39.5943 17.0907 39.6814C17.0906 39.7249 17.0905 39.7583 17.0904 39.7809C17.0904 39.7922 17.0904 39.8008 17.0904 39.8067C17.0904 39.8096 17.0904 39.8119 17.0904 39.8134C17.0904 39.8142 17.0904 39.8148 17.0904 39.8152C17.0904 39.8154 17.0904 39.8156 17.0904 39.8157C17.0904 39.8159 17.0904 39.816 18.0904 39.816C19.0904 39.816 19.0904 39.816 19.0904 39.816C19.0904 39.8159 19.0904 39.8158 19.0904 39.8157C19.0904 39.8154 19.0904 39.815 19.0904 39.8143C19.0904 39.8131 19.0904 39.8112 19.0904 39.8085C19.0904 39.8033 19.0904 39.7953 19.0904 39.7846C19.0905 39.7633 19.0906 39.7312 19.0907 39.689C19.091 39.6046 19.0917 39.4795 19.093 39.318C19.0956 38.995 19.1008 38.5265 19.1113 37.9466C19.1322 36.7864 19.174 35.1823 19.2575 33.4066C19.4259 29.828 19.7603 25.6456 20.4081 22.9708L18.4643 22.5ZM24.9104 15.4597C21.795 16.389 19.2963 19.1419 18.4656 22.4949L20.4069 22.9759C21.0834 20.2454 23.1067 18.0848 25.4821 17.3762L24.9104 15.4597ZM50.7667 14.9556C50.7667 13.9556 50.7666 13.9556 50.7664 13.9556C50.7662 13.9556 50.7659 13.9556 50.7656 13.9556C50.7649 13.9556 50.764 13.9556 50.7627 13.9556C50.7601 13.9556 50.7563 13.9556 50.7513 13.9556C50.7412 13.9556 50.7263 13.9556 50.7067 13.9556C50.6674 13.9557 50.6093 13.9557 50.5333 13.9559C50.3814 13.9563 50.1583 13.957 49.8727 13.9584C49.3015 13.9613 48.4803 13.967 47.479 13.9785C45.477 14.0014 42.753 14.0472 39.8675 14.1389C36.9837 14.2305 33.9301 14.3682 31.2714 14.5755C28.6422 14.7806 26.3096 15.0595 24.9213 15.4565L25.4712 17.3794C26.64 17.0452 28.7822 16.7757 31.4269 16.5695C34.0421 16.3655 37.0614 16.229 39.931 16.1379C42.7989 16.0467 45.5086 16.0012 47.5019 15.9784C48.4983 15.967 49.3152 15.9613 49.8827 15.9584C50.1665 15.957 50.3878 15.9563 50.5381 15.9559C50.6132 15.9557 50.6705 15.9557 50.709 15.9556C50.7282 15.9556 50.7427 15.9556 50.7524 15.9556C50.7572 15.9556 50.7608 15.9556 50.7632 15.9556C50.7644 15.9556 50.7653 15.9556 50.7659 15.9556C50.7662 15.9556 50.7664 15.9556 50.7665 15.9556C50.7666 15.9556 50.7667 15.9556 50.7667 14.9556ZM76.6221 15.5179C75.2302 15.104 72.8941 14.8137 70.265 14.6005C67.6055 14.3847 64.5512 14.2415 61.6671 14.1462C58.7813 14.0509 56.057 14.0032 54.0548 13.9794C53.0534 13.9675 52.2321 13.9615 51.6609 13.9586C51.3752 13.9571 51.1521 13.9563 51.0001 13.9559C50.9242 13.9558 50.866 13.9557 50.8267 13.9556C50.8071 13.9556 50.7922 13.9556 50.7821 13.9556C50.7771 13.9556 50.7733 13.9556 50.7707 13.9556C50.7694 13.9556 50.7684 13.9556 50.7678 13.9556C50.7674 13.9556 50.7672 13.9556 50.767 13.9556C50.7668 13.9556 50.7667 13.9556 50.7667 14.9556C50.7667 15.9556 50.7667 15.9556 50.7668 15.9556C50.767 15.9556 50.7672 15.9556 50.7675 15.9556C50.768 15.9556 50.7689 15.9556 50.7701 15.9556C50.7725 15.9556 50.7761 15.9556 50.7809 15.9556C50.7906 15.9556 50.8051 15.9556 50.8243 15.9556C50.8628 15.9557 50.9201 15.9558 50.9952 15.9559C51.1454 15.9563 51.3667 15.957 51.6504 15.9585C52.2179 15.9615 53.0347 15.9674 54.031 15.9793C56.0241 16.003 58.7336 16.0504 61.6011 16.1451C64.4704 16.2399 67.4891 16.3819 70.1034 16.5939C72.7482 16.8084 74.8869 17.0885 76.052 17.435L76.6221 15.5179ZM44.7834 50.9033L61.7945 40.2572L60.7335 38.5618L43.7224 49.2079L44.7834 50.9033ZM43.2529 28.7634V50.0556H45.2529V28.7634H43.2529ZM61.7945 38.5618L44.7834 27.9157L43.7224 29.6111L60.7335 40.2572L61.7945 38.5618Z"
                fill="white" fill-opacity="0.5" mask="url(#path-1-inside-1_1_1200__subtract)" />
        </g>
        <defs>
            <filter id="filter0_d_1_1200__subtract" x="0.0903931" y="0.955566" width="101.353"
                height="85.7207" filterUnits="userSpaceOnUse" color-interpolation-filters="sRGB">
                <feFlood flood-opacity="0" result="BackgroundImageFix" />
                <feColorMatrix in="SourceAlpha" type="matrix"
                    values="0 0 0 0 0 0 0 0 0 0 0 0 0 0 0 0 0 0 127 0" result="hardAlpha" />
                <feOffset dy="4" />
                <feGaussianBlur stdDeviation="9" />
                <feComposite in2="hardAlpha" operator="out" />
                <feColorMatrix type="matrix"
                    values="0 0 0 0 0.337255 0 0 0 0 1 0 0 0 0 0.921569 0 0 0 0.7 0" />
                <feBlend mode="normal" in2="BackgroundImageFix" result="effect1_dropShadow_1_1200" />
                <feBlend mode="normal" in="SourceGraphic" in2="effect1_dropShadow_1_1200"
                    result="shape" />
            </filter>
        </defs>
    </symbol>
    <symbol id="telegram" viewBox="0 0 99 90" xmlns="http://www.w3.org/2000/svg">
        <g filter="url(#filter0_d_1_1187__telegram)">
            <path
                d="M22.821 37.2808C39.4371 29.8617 50.5171 24.9705 56.0609 22.6073C71.8899 15.86 75.179 14.6879 77.3228 14.6488C77.7943 14.6407 78.8486 14.7605 79.5315 15.3284C80.1081 15.8079 80.2668 16.4556 80.3427 16.9103C80.4186 17.3649 80.5131 18.4006 80.438 19.2098C79.5802 28.4464 75.8686 50.8612 73.9804 61.2063C73.1814 65.5837 71.6082 67.0514 70.0851 67.195C66.7751 67.5072 64.2617 64.9533 61.0558 62.7996C56.0392 59.4295 53.2052 57.3316 48.3358 54.043C42.7083 50.2424 46.3564 48.1536 49.5634 44.7399C50.4027 43.8465 64.9866 30.2519 65.2689 29.0186C65.3042 28.8644 65.3369 28.2894 65.0036 27.9859C64.6704 27.6823 64.1785 27.7861 63.8235 27.8687C63.3204 27.9857 55.3064 33.4142 39.7815 44.1543C37.5067 45.7551 35.4463 46.5351 33.6003 46.4942C31.5651 46.4491 27.6504 45.3149 24.7402 44.3454C21.1707 43.1563 18.3337 42.5276 18.5807 40.5081C18.7094 39.4562 20.1228 38.3805 22.821 37.2808Z"
                fill="white" fill-opacity="0.7" shape-rendering="crispEdges" />
            <path
                d="M23.0097 37.7439L23.0174 37.7408L23.0249 37.7374C39.6416 30.3179 50.7177 25.4285 56.257 23.0673C64.1733 19.6928 68.9421 17.7177 71.9981 16.5811C75.0628 15.4414 76.3517 15.1667 77.3316 15.1487C77.5273 15.1454 77.8655 15.1692 78.2289 15.2582C78.5953 15.348 78.9498 15.4949 79.2118 15.7128C79.6447 16.0728 79.7784 16.5669 79.8495 16.9926C79.9208 17.4194 80.0101 18.4098 79.9401 19.1636C79.0847 28.3753 75.3771 50.7697 73.4885 61.1165C72.6967 65.4545 71.1973 66.5879 70.0382 66.6973C68.5345 66.8391 67.1887 66.3362 65.7893 65.4936C65.0884 65.0716 64.3857 64.5717 63.6479 64.0346C63.5256 63.9456 63.4023 63.8554 63.2779 63.7646C62.6572 63.3111 62.0107 62.8387 61.3346 62.3845C58.8302 60.7021 56.8706 59.3372 54.9268 57.9807L54.6698 57.8013C52.8118 56.5046 50.9465 55.2028 48.6156 53.6286C47.2356 52.6966 46.4905 51.9114 46.148 51.2391C45.8229 50.6009 45.8438 50.0331 46.0963 49.4431C46.3628 48.8205 46.8874 48.176 47.5881 47.4453C47.8952 47.125 48.2266 46.7977 48.5749 46.4535C48.6199 46.4091 48.6651 46.3644 48.7106 46.3194C49.1066 45.9279 49.5201 45.5162 49.9279 45.0822C50.1206 44.8771 51.0712 43.9714 52.4205 42.686C53.9375 41.2408 55.9585 39.3154 57.9728 37.366C59.8667 35.5329 61.7469 33.6857 63.1725 32.2181C63.8846 31.485 64.4882 30.8416 64.9247 30.3397C65.1423 30.0894 65.3243 29.8677 65.4588 29.6838C65.5259 29.592 65.586 29.5032 65.6339 29.4205C65.6772 29.3459 65.7304 29.2431 65.7563 29.1302C65.7885 28.9894 65.8067 28.7449 65.7693 28.4867C65.7322 28.2299 65.6282 27.8784 65.3403 27.6162C65.0524 27.354 64.7097 27.2848 64.4257 27.2825C64.1499 27.2803 63.8845 27.3411 63.7102 27.3817C63.6013 27.407 63.4803 27.4714 63.4031 27.5132C63.3025 27.5677 63.1751 27.642 63.0234 27.7341C62.719 27.9188 62.2988 28.1858 61.7651 28.5333C60.6965 29.2291 59.1594 30.2563 57.1552 31.6139C53.1461 34.3296 47.2598 38.3728 39.497 43.7431L39.4937 43.7454C37.2644 45.3142 35.3088 46.0319 33.6113 45.9943C32.6559 45.9732 31.2167 45.6918 29.6228 45.2822C28.0408 44.8757 26.3463 44.3535 24.8982 43.8711C24.4531 43.7228 24.0249 43.5848 23.6162 43.453C22.3499 43.0448 21.2703 42.6967 20.4516 42.2903C19.9168 42.0248 19.5492 41.7595 19.3286 41.4816C19.1229 41.2226 19.0319 40.9379 19.077 40.5688C19.1169 40.2433 19.372 39.8187 20.0401 39.3103C20.6967 38.8105 21.6789 38.2862 23.0097 37.7439Z"
                stroke="white" stroke-opacity="0.5" shape-rendering="crispEdges" />
        </g>
        <defs>
            <filter id="filter0_d_1_1187__telegram" x="0.565735" y="0.648438" width="97.8998"
                height="88.5728" filterUnits="userSpaceOnUse" color-interpolation-filters="sRGB">
                <feFlood flood-opacity="0" result="BackgroundImageFix" />
                <feColorMatrix in="SourceAlpha" type="matrix"
                    values="0 0 0 0 0 0 0 0 0 0 0 0 0 0 0 0 0 0 127 0" result="hardAlpha" />
                <feOffset dy="4" />
                <feGaussianBlur stdDeviation="9" />
                <feComposite in2="hardAlpha" operator="out" />
                <feColorMatrix type="matrix"
                    values="0 0 0 0 0.803922 0 0 0 0 0.388235 0 0 0 0 1 0 0 0 0.7 0" />
                <feBlend mode="normal" in2="BackgroundImageFix" result="effect1_dropShadow_1_1187" />
                <feBlend mode="normal" in="SourceGraphic" in2="effect1_dropShadow_1_1187"
                    result="shape" />
            </filter>
        </defs>
    </symbol>
    <symbol id="twitter" width="21" height="17" viewBox="0 0 21 17" fill="none"
        xmlns="http://www.w3.org/2000/svg">
        <path
            d="M20.41 2.26417C19.6794 2.62946 18.9488 2.75122 18.0965 2.87298C18.9488 2.38593 19.5577 1.65536 19.8012 0.681268C19.0706 1.16831 18.2183 1.41184 17.2442 1.65536C16.5136 0.924791 15.4178 0.437744 14.3219 0.437744C11.7649 0.437744 9.81671 2.87298 10.4255 5.30822C7.13795 5.18646 4.21567 3.60355 2.14572 1.16832C1.04986 2.99474 1.65867 5.30822 3.36334 6.52584C2.75453 6.52584 2.14572 6.28231 1.53691 6.03879C1.53691 7.86522 2.87629 9.56988 4.70272 10.0569C4.09391 10.1787 3.4851 10.3005 2.87629 10.1787C3.36334 11.7616 4.82448 12.9792 6.65091 12.9792C5.18976 14.0751 2.99805 14.6839 0.928101 14.4404C2.75453 15.5362 4.82448 16.2668 7.01619 16.2668C14.4437 16.2668 18.5836 10.0569 18.34 4.33412C19.1924 3.84707 19.9229 3.1165 20.41 2.26417Z"
            fill="white" />
    </symbol>
    <symbol id="twitter2" width="101" height="93" viewBox="0 0 101 93" fill="none"
        xmlns="http://www.w3.org/2000/svg">
        <g filter="url(#filter0_d_1_1176__twitter2)">
            <path
                d="M82.4845 20.5769C80.0845 21.8923 77.6845 22.3308 74.8845 22.7692C77.6845 21.0154 79.6845 18.3846 80.4845 14.8769C78.0845 16.6308 75.2845 17.5077 72.0845 18.3846C69.6845 15.7538 66.0845 14 62.4845 14C54.0845 14 47.6845 22.7692 49.6845 31.5385C38.8845 31.1 29.2845 25.4 22.4845 16.6308C18.8845 23.2077 20.8845 31.5385 26.4845 35.9231C24.4845 35.9231 22.4845 35.0462 20.4845 34.1692C20.4845 40.7462 24.8845 46.8846 30.8845 48.6385C28.8845 49.0769 26.8845 49.5154 24.8845 49.0769C26.4845 54.7769 31.2845 59.1615 37.2845 59.1615C32.4845 63.1077 25.2845 65.3 18.4845 64.4231C24.4845 68.3692 31.2845 71 38.4845 71C62.8845 71 76.4845 48.6385 75.6845 28.0308C78.4845 26.2769 80.8845 23.6462 82.4845 20.5769Z"
                fill="white" fill-opacity="0.7" shape-rendering="crispEdges" />
            <path
                d="M37.2845 58.6615C31.8154 58.6615 27.3489 54.848 25.6012 49.7012C27.4285 49.9081 29.2331 49.5124 30.9421 49.1377L30.9916 49.1269L31.0248 48.1585C25.4882 46.5401 21.3334 41.0154 21.0054 34.9423C22.7676 35.7046 24.6167 36.4231 26.4845 36.4231H27.9341L26.7927 35.5294C21.5694 31.4397 19.5863 23.7905 22.5742 17.5514C29.4173 26.0688 38.9479 31.603 49.6642 32.038L50.3173 32.0646L50.172 31.4273C48.233 22.9256 54.4505 14.5 62.4845 14.5C65.9299 14.5 69.4 16.1839 71.7151 18.7216L71.9214 18.9477L72.2166 18.8668C74.9374 18.1212 77.4293 17.3617 79.6407 16.035C78.7176 18.7783 76.9621 20.8779 74.6191 22.3455L74.9619 23.2632C77.2083 22.9114 79.248 22.5536 81.2497 21.7227C79.7359 24.1237 77.7128 26.1703 75.4191 27.607L75.1736 27.7608L75.1849 28.0502C75.978 48.4802 62.505 70.5 38.4845 70.5C32.088 70.5 25.9943 68.3871 20.4929 65.0941C26.7882 65.3532 33.1816 63.1819 37.602 59.5478L38.68 58.6615H37.2845Z"
                stroke="white" stroke-opacity="0.5" shape-rendering="crispEdges" />
        </g>
        <defs>
            <filter id="filter0_d_1_1176__twitter2" x="0.484497" y="0" width="100" height="93"
                filterUnits="userSpaceOnUse" color-interpolation-filters="sRGB">
                <feFlood flood-opacity="0" result="BackgroundImageFix" />
                <feColorMatrix in="SourceAlpha" type="matrix"
                    values="0 0 0 0 0 0 0 0 0 0 0 0 0 0 0 0 0 0 127 0" result="hardAlpha" />
                <feOffset dy="4" />
                <feGaussianBlur stdDeviation="9" />
                <feComposite in2="hardAlpha" operator="out" />
                <feColorMatrix type="matrix"
                    values="0 0 0 0 0.254902 0 0 0 0 0.776471 0 0 0 0 1 0 0 0 0.7 0" />
                <feBlend mode="normal" in2="BackgroundImageFix" result="effect1_dropShadow_1_1176" />
                <feBlend mode="normal" in="SourceGraphic" in2="effect1_dropShadow_1_1176"
                    result="shape" />
            </filter>
        </defs>
    </symbol>
</svg>